<svg width="3086" height="2137" xmlns="http://www.w3.org/2000/svg" xmlns:xlink="http://www.w3.org/1999/xlink" overflow="hidden"><defs><clipPath id="clip0"><rect x="453" y="169" width="3086" height="2137"/></clipPath></defs><g clip-path="url(#clip0)" transform="translate(-453 -169)"><path d="M1423 169 1813 169 1813 2142.19 1813 2146.77 1813 2149.56 1425.42 2306 1423 2303.58 1423 1757.14 1423 1752.56Z" fill="#00B0F0" fill-rule="evenodd" fill-opacity="0.85098"/><rect x="1033" y="169" width="780" height="389" fill="#0070C0" fill-opacity="0.85098"/><path d="M453 1333 1004.06 1333 1423.34 1752.39 1423.34 1752.39 1813 2142.14 1813 2149.51 1425.77 2306 1423.34 2303.58 1423.34 2303.58Z" fill="#002060" fill-rule="evenodd" fill-opacity="0.85098"/><path d="M2303.59 364 3539 364 3539 389.57 3506.08 405.912C3422.49 456.687 3366.65 548.575 3366.65 653.5 3366.65 767.17 3432.18 865.538 3527.54 912.909L3539 917.505 3539 943 2303.59 943C2143.65 943 2014 813.386 2014 653.5 2014 493.614 2143.65 364 2303.59 364Z" fill="#002060" fill-rule="evenodd"/><path d="M2303.59 929 3539 929 3539 954.496 3527.54 959.091C3432.18 1006.46 3366.65 1104.83 3366.65 1218.5 3366.65 1332.17 3432.18 1430.54 3527.54 1477.91L3539 1482.5 3539 1508 2303.59 1508C2143.65 1508 2014 1378.39 2014 1218.5 2014 1058.61 2143.65 929 2303.59 929Z" fill="#FF0000" fill-rule="evenodd"/><path d="M2303.59 1494 3539 1494 3539 1519.5 3527.54 1524.09C3432.18 1571.46 3366.65 1669.83 3366.65 1783.5 3366.65 1888.43 3422.49 1980.31 3506.08 2031.09L3539 2047.43 3539 2073 2303.59 2073C2143.65 2073 2014 1943.39 2014 1783.5 2014 1623.61 2143.65 1494 2303.59 1494Z" fill="#00B050" fill-rule="evenodd"/></g></svg>